<?xml version="1.0" encoding="utf-8"?>
<!-- Generator: Adobe Illustrator 18.1.1, SVG Export Plug-In . SVG Version: 6.00 Build 0)  -->
<svg version="1.1" id="Layer_1" xmlns="http://www.w3.org/2000/svg" xmlns:xlink="http://www.w3.org/1999/xlink" x="0px" y="0px"
	 viewBox="0 0 512 512" enable-background="new 0 0 512 512" xml:space="preserve">
<g transform="matrix( 1, 0, 0, 1, 30,30) ">
	<g transform="matrix( 1, 0, 0, 1, -37.4,-33) ">
		<g>
			<path fill="#FFD107" d="M263.4,482.5c-61.3,0-114.5-22.1-157.9-65.6C62.7,374.2,41,321,41,259c0-60.8,21.7-113.9,64.3-157.7
				c43.8-43.8,96.9-65.8,158.1-65.8s114.5,22.1,157.9,65.6c42.9,44.1,64.5,97.2,64.5,157.9s-21.7,113.9-64.3,157.7
				C377.9,460.5,324.7,482.5,263.4,482.5z M263.4,76.8c-50.7,0-92.7,17.5-128.7,53.5C99.5,166.5,82.3,208.6,82.3,259
				c0,51.4,17.1,93.5,52.4,128.7c36,36,78,53.5,128.7,53.5s92.7-17.5,128.7-53.5c35.2-36.2,52.4-78.3,52.4-128.7
				s-17.2-92.5-52.6-128.9C356.1,94.3,314.1,76.8,263.4,76.8z"/>
		</g>
	</g>
	<g transform="matrix( 1, 0, 0, 1, -37.4,-33) ">
		<g>
			<path fill="#03A4AE" d="M263.4,503.2c-66.9,0-125-24.1-172.6-71.6C44,384.8,20.3,326.7,20.3,259c0-22.8,18.5-41.3,41.3-41.3
				s41.3,18.5,41.3,41.3c0,46.3,14.8,82.5,46.3,114.1c31.9,31.9,69.2,47.4,114.1,47.4s82.2-15.5,114.1-47.4
				c31.1-31.8,46.5-69.4,46.5-114.1c0-46.2-14.8-82.5-46.3-114.1c-31.9-31.9-69.3-47.4-114.1-47.4c-5.1,0-9.8,0-13,0.5
				c-22.5,3.9-43.9-11.4-47.6-33.9s11.4-43.9,33.9-47.6c10-1.7,19.2-1.7,26.7-1.7c66.9,0,125,24.1,172.6,71.6
				c46.8,46.8,70.5,104.9,70.5,172.6c0,66.3-23.6,124.2-70.1,172.2C388.4,479.1,330.3,503.2,263.4,503.2z"/>
		</g>
	</g>
</g>
</svg>
