<?xml version="1.0" encoding="utf-8"?>
<!-- Generator: Adobe Illustrator 19.0.0, SVG Export Plug-In . SVG Version: 6.00 Build 0)  -->
<svg version="1.1" id="Layer_1" xmlns="http://www.w3.org/2000/svg" xmlns:xlink="http://www.w3.org/1999/xlink" x="0px" y="0px"
	 viewBox="0 0 523.5 133.5" style="enable-background:new 0 0 523.5 133.5;" xml:space="preserve">
<style type="text/css">
	.st0{fill:#00A3AD;}
</style>
<g id="XMLID_47_">
	<path id="XMLID_7_" class="st0" d="M385.3,75.1c0.9,9.6-6.3,18.2-15.9,19c-1.3,0.1-2.5,0.1-3.8-0.1c-9.6,1-18.2-6-19.2-15.7
		c-0.1-1.2-0.1-2.4,0-3.6v-52c0.4-1.9-0.8-3.7-2.7-4.1c0,0,0,0-0.1,0c-6.1-1.5-12.4-1.5-18.5,0c-1.9,0.3-3.2,2.2-2.8,4.1
		c0,0,0,0,0,0.1v52.6c0,26.1,16.3,40.2,43.2,40.2c26.9,0,43.5-14.1,43.5-40.2V22.7c0.4-1.9-0.8-3.7-2.7-4.1c0,0,0,0-0.1,0
		c-6-1.5-12.3-1.5-18.2,0c-1.9,0.3-3.2,2.2-2.8,4.1c0,0,0,0,0,0.1v52L385.3,75.1z"/>
	<path id="XMLID_6_" class="st0" d="M266.5,115.5c3.1,0.1,6.2-0.3,9.2-1.1c1.9-0.3,3.2-2.2,2.8-4.1c0,0,0,0,0-0.1V40.5h25.1
		c1.9,0.3,3.6-1,3.9-2.8c1.3-5.1,1.3-10.5,0-15.7c-0.3-1.8-2.1-3.1-3.9-2.8h-74.2c-1.9-0.3-3.6,1-3.9,2.8c-1.3,5.1-1.3,10.5,0,15.7
		c0.3,1.8,2.1,3.1,3.9,2.8h25.1v69.7c-0.4,1.9,0.8,3.7,2.7,4.1c0,0,0,0,0.1,0C260.3,115.2,263.4,115.6,266.5,115.5z"/>
	<path class="st0" d="M66.6,17.4C35.9,17.4,14,38.2,14,66.7S35.7,116,66.6,116s52.6-20.9,52.6-49.3S97.4,17.4,66.6,17.4z M66.6,94.3
		c-15.2,0-27.6-12.4-27.6-27.6s12.4-27.6,27.6-27.6c15.2,1.6,26.2,15.1,24.6,30.3c-1.3,13-11.6,23.3-24.6,24.6V94.3z"/>
	<path class="st0" d="M178.2,19.2h-39.6c-1.6-0.1-3,1.1-3.2,2.7c0,0.2,0,0.3,0,0.5v87.7c-0.4,1.9,0.8,3.7,2.7,4.1c0,0,0,0,0.1,0
		c3,0.8,6.1,1.2,9.2,1.1c3.1,0.1,6.2-0.3,9.2-1.1c1.9-0.3,3.2-2.2,2.8-4.1c0,0,0,0,0-0.1V85.7h19c24.7,0,37.8-13.4,37.8-33.1
		S203.1,19.2,178.2,19.2z M177.9,66h-18.4V39.9h18.4c7.2-1.1,13.8,3.9,14.9,11c1.1,7.2-3.9,13.8-11,14.9c-1.3,0.2-2.6,0.2-3.9,0
		L177.9,66z"/>
	<path id="XMLID_1_" class="st0" d="M424.7,104.7c12.9,7.5,27.5,11.4,42.4,11.3c24.8,0,42.4-12.3,42.4-32.6
		c0-15.5-11.3-23.4-32.3-27.4l-4.3-0.8c-16.1-2.8-20.3-4.8-20.3-9.2s5.8-8.1,16.2-8.1c8.5,0.1,16.9,2.1,24.5,5.8
		c1.5,1.1,3.6,0.8,4.8-0.5c3.4-4,5.9-8.6,7.5-13.6c0.8-1.7-0.1-3.8-1.8-4.5c0,0,0,0-0.1,0c-11-5.1-23-7.7-35.1-7.6
		c-25.5,0-41.3,11.4-41.6,30.2c-0.4,16.8,11.1,25.3,31.6,28.5l4.9,0.8c15.5,2.4,20,4.3,20,9.2s-5.8,9.2-16.8,9.2
		c-11.1-0.5-21.9-3.7-31.4-9.4c-1.4-1.2-3.5-0.9-4.7,0.5c0,0-0.1,0.1-0.1,0.1c-3.3,4-5.9,8.7-7.4,13.7
		C422.5,102,423.2,103.9,424.7,104.7z"/>
</g>
</svg>
